<svg xmlns="http://www.w3.org/2000/svg" viewBox="0 0 276.7 238.7"><style>.st0{display:none}.st2{display:inline}.st7{fill:#9d9d9c}.st9{fill-rule:evenodd;clip-rule:evenodd}.st10,.st9{fill:#c6c6c6}.st11{fill:#878787}.st12{fill:#fff}.st13{fill:#f7b7d2}.st15{fill:#63d4f3}.st16{fill:#b2b2b2}.st17{fill:none}.st19{font-family:&apos;Metropolis-SemiBold&apos;}</style><path fill="#fff" d="M-99.3-67.3h500v500h-500z" id="BACKGROUND"/><g id="OBJECTS"><g class="st0"><g class="st2"><path d="M232.6 279.4c0 5.4-4.4 9.9-9.9 9.9H78.6c-5.4 0-9.9-4.4-9.9-9.9v-19.7c0-5.4 4.4-9.9 9.9-9.9h144.1c5.4 0 9.9 4.4 9.9 9.9v19.7z" fill="#85ddf3"/><path d="M229.1 277.7c0 4.5-4.2 8.1-9.4 8.1h-138c-5.2 0-9.4-3.6-9.4-8.1v-16.2c0-4.5 4.2-8.1 9.4-8.1h137.9c5.2 0 9.4 3.6 9.4 8.1v16.2z" fill="none" stroke="#fff" stroke-width="1.144" stroke-miterlimit="10"/><path class="st17" d="M75.1 259.3h151.2v25.5H75.1z"/><text transform="translate(89.06 278.516)" class="st12" font-family="Asap-Medium" font-size="27.104">404 error</text></g><g class="st2"><path class="st17" d="M44.6 327.2h218.2v48.5H44.6z"/><text transform="translate(47.231 334.254)"><tspan x="0" y="0" fill="#5f93a7" font-family="BloggerSans" font-size="10">Lorem ipsum dolor sit amet, consectetur adipiscing </tspan><tspan x=".6" y="12" fill="#5f93a7" font-family="BloggerSans" font-size="10">elit, sed do eiusmod tempor incididunt ut labore et </tspan><tspan x="6.4" y="24" fill="#5f93a7" font-family="BloggerSans" font-size="10">dolore magna aliqua. Ut enim ad minim veniam.</tspan></text><path class="st17" d="M16.7 303.5h267.9v19H16.7z"/><text transform="translate(48.525 314.842)" class="st19" fill="#e79ec7" font-size="16">sorry, the page not found</text><path class="st17" d="M86.3 373.2h128.3v13.7H86.3z"/><text transform="translate(102.039 381.04)" class="st15" font-family="Metropolis-Bold" font-size="11" text-decoration="underline">back to homepage</text></g></g><ellipse cx="150.7" cy="219.4" rx="122.4" ry="14.6" fill="#f6f6f6"/><path d="M230.4 203.3V7.8H79.1v213.4h133.4M90 24.2c-5.5 0-5.5-8.5 0-8.5 5.4 0 5.4 8.5 0 8.5zm14.3 0c-5.5 0-5.5-8.5 0-8.5s5.5 8.5 0 8.5zm14.5.1c-5.5 0-5.5-8.5 0-8.5s5.5 8.5 0 8.5zm14.4-.2c-5.5 0-5.5-8.5 0-8.5s5.5 8.5 0 8.5zm14.3.1c-5.5 0-5.5-8.5 0-8.5s5.5 8.5 0 8.5zm14.4-.1c-5.5 0-5.5-8.5 0-8.5s5.5 8.5 0 8.5zm14.5.1c-5.5 0-5.5-8.5 0-8.5 5.4 0 5.4 8.5 0 8.5zm14.4-.1c-5.5 0-5.5-8.5 0-8.5 5.4 0 5.4 8.5 0 8.5zm14.5.1c-5.5 0-5.5-8.5 0-8.5s5.5 8.5 0 8.5zm14.3 0c-5.5 0-5.5-8.5 0-8.5s5.5 8.5 0 8.5z" fill="#dadada"/><path class="st7" d="M78.1 106.9c-8.9-.8-16.9 2.2-20.9 10.6-3.8 8-3.7 17.5-3.7 26.2 0 2.4 3.7 2.4 3.8 0 0-7.3 0-15 2.3-22 2.9-8.6 9.7-11.9 18.5-11.1 2.4.3 2.4-3.5 0-3.7z"/><path class="st7" d="M62.2 146.1c-1.7-.7-3.5-1.1-4.7-2.6-1-1.3-2.7.5-1.8 1.8 1.4 1.8 3.3 2.2 5.3 3 1.4.6 2.6-1.5 1.2-2.2z"/><path class="st7" d="M55.1 144.5c-.4 2.9.1 5.9-.3 8.8-.2 1.6 2.2 2.3 2.4.7.4-3.2 0-6.3.4-9.5.2-1.6-2.3-1.6-2.5 0z"/><path class="st7" d="M53.9 144.4c-1.7 2.2-2.2 5-3.7 7.3-.8 1.4 1.3 2.6 2.2 1.3 1.4-2.4 2-5.1 3.7-7.3 1-1.3-1.2-2.6-2.2-1.3z"/><path class="st7" d="M53.8 143.3c-2 1.7-3.9 3.7-6.2 5-1.4.8-.2 2.9 1.3 2.2 2.6-1.4 4.6-3.5 6.8-5.4 1.1-1.1-.7-2.8-1.9-1.8z"/><g><path class="st7" d="M223.2 110.6c8.8-.8 15.6 2.4 18.5 11.1 2.4 7 2.3 14.7 2.3 22 0 2.4 3.8 2.4 3.8 0 0-8.7.1-18.2-3.7-26.2-4-8.4-11.9-11.4-20.9-10.6-2.4.2-2.4 4 0 3.7z"/><path class="st7" d="M240.4 148.3c1.9-.8 3.9-1.3 5.3-3 1-1.3-.8-3-1.8-1.8-1.2 1.5-3 1.9-4.7 2.6-1.5.7-.2 2.8 1.2 2.2z"/><path class="st7" d="M243.7 144.5c.4 3.2-.1 6.3.4 9.5.2 1.6 2.6.9 2.4-.7-.4-2.9.1-5.9-.3-8.8-.2-1.5-2.7-1.6-2.5 0z"/><path class="st7" d="M245.2 145.7c1.7 2.2 2.2 5 3.7 7.3.8 1.4 3 .1 2.2-1.3-1.4-2.4-2-5.1-3.7-7.3-1-1.3-3.1 0-2.2 1.3z"/><path class="st7" d="M245.7 145.1c2.2 1.9 4.2 4 6.8 5.4 1.4.7 2.7-1.4 1.3-2.2-2.4-1.3-4.2-3.3-6.2-5-1.3-1-3.1.7-1.9 1.8z"/></g><g><path d="M226.2 199.9V4.4H74.9v213.4h133.4M85.7 20.8c-5.5 0-5.5-8.5 0-8.5s5.5 8.5 0 8.5zm14.3 0c-5.5 0-5.5-8.5 0-8.5s5.5 8.5 0 8.5zm14.6.1c-5.5 0-5.5-8.5 0-8.5 5.4 0 5.4 8.5 0 8.5zm14.4-.2c-5.5 0-5.5-8.5 0-8.5 5.4 0 5.4 8.5 0 8.5zm14.3.1c-5.5 0-5.5-8.5 0-8.5 5.4 0 5.4 8.5 0 8.5zm14.4-.1c-5.5 0-5.5-8.5 0-8.5s5.5 8.5 0 8.5zm14.4.1c-5.5 0-5.5-8.5 0-8.5s5.5 8.5 0 8.5zm14.4-.1c-5.5 0-5.5-8.5 0-8.5s5.5 8.5 0 8.5zm14.5.1c-5.5 0-5.5-8.5 0-8.5s5.5 8.5 0 8.5zm14.4 0c-5.5 0-5.5-8.5 0-8.5 5.4 0 5.4 8.5 0 8.5z" fill="#ededed"/><path class="st9" d="M75 44.6h151.3v1H75zM75 56.1h151.3v1H75zM75 67.6h151.3v1H75zM75 79.1h151.3v1H75zM75 90.6h151.3v1H75zM75 102.1h151.3v1H75zM75 113.5h151.3v1H75zM75 125h151.3v1H75zM75 136.5h151.3v1H75zM75 148h151.3v1H75zM75 159.5h151.3v1H75zM75 171h151.3v1H75zM75 182.5h151.3v1H75zM75 193.9h151.3v1H75zM75 33.2h151.3v1H75z"/><path class="st10" d="M208.3 217.8v-17.9h17.9"/></g><g><path class="st11" d="M127.2 92.3c8.9 0 8.9-13.8 0-13.8-8.8 0-8.8 13.8 0 13.8z"/><path class="st12" d="M129.1 85.3c2.2 0 2.2-3.4 0-3.4-2.3 0-2.3 3.4 0 3.4z"/><path class="st11" d="M172.2 92.3c8.9 0 8.9-13.8 0-13.8s-8.9 13.8 0 13.8z"/><path class="st12" d="M174 85.3c2.2 0 2.2-3.4 0-3.4s-2.2 3.4 0 3.4z"/><g><path class="st13" d="M108.9 112.3c12.2 0 12.2-19 0-19-12.3 0-12.3 19 0 19zM192.4 112.3c12.2 0 12.2-19 0-19s-12.2 19 0 19z"/></g><path d="M163.9 109.8c0-6.1-5.9-11-13.2-11h0c-7.3 0-13.2 4.9-13.2 11" fill="none" stroke="#878787" stroke-width="2.596" stroke-linecap="round" stroke-linejoin="round" stroke-miterlimit="10"/></g><g><path class="st10" d="M184.4 37c.8.8 1.2 2 1.2 3.1.1 1.1-.2 2.3-.6 3.3-.5 1-1.2 2-2.2 2.6-1 .7-2.2 1-3.4.6.8-.9 1.3-1.6 1.7-2.3.4-.7.8-1.5 1.1-2.2.3-.8.7-1.5 1-2.4.5-.8.9-1.6 1.2-2.7zM188 36c.5 1.1 1.1 1.8 1.7 2.4.6.6 1.3 1.2 2 1.7s1.4 1 2.2 1.5c.8.5 1.6.9 2.7 1.3-.9.9-2.3 1.1-3.4 1-1.2-.2-2.4-.7-3.3-1.4-1-.7-1.8-1.7-2.2-2.9-.4-1.2-.5-2.6.3-3.6zM180.5 49c.8-.8 2.1-1 3.1-.9 1.1.1 2.1.5 3 1 .9.6 1.7 1.3 2.3 2.2.6.9 1 2 .7 3.2-.9-.7-1.6-1.1-2.4-1.5l-2.1-1.3-2.1-1.3c-.8-.4-1.5-.9-2.5-1.4zM197.1 46.1c-.6.8-.9 1.4-1.3 2.1-.4.6-.7 1.2-1.1 1.8-.4.6-.8 1.1-1.2 1.7l-1.5 2c-.6-.8-.8-1.8-.7-2.7.1-.9.4-1.8 1-2.6.5-.8 1.2-1.4 2.1-1.9.7-.6 1.7-.8 2.7-.4z"/><g><path class="st15" d="M204.6 38.7c1 6.3-13.2 35.6 2.6 35.5 14.3-.1 4.9-26.2-2.6-35.5"/><path class="st12" d="M210.1 59c1 .7 1.6 1.7 2 2.8.4 1.1.6 2.2.6 3.3 0 1.1-.2 2.2-.6 3.3-.4 1.1-1 2.1-2 2.8-.2-1.2-.2-2.2-.3-3.2-.1-1-.1-2-.1-2.9 0-1 0-1.9.1-2.9s.2-2 .3-3.2z"/></g></g><g><path class="st12" d="M83.9 86c-3.6-2.2-7.9-6.5-9.4-9.4 18.2-8 29-23.3 21-45.1-8.7-26.2-47.1-27.4-67-19.7C1.4 22.3-7.7 53 15.3 73.3 28.2 84.7 49.2 87.4 61 80.7c2.1-1.3 10.3 7.5 22.9 5.3"/><path class="st16" d="M84.2 85.4C81.5 83.7 79 81.5 77 79c-1.8-2.2-1.3-2.2 1-3.4 1.4-.7 2.7-1.5 4.1-2.3 4-2.5 7.6-5.6 10.5-9.3 6.1-7.9 7.6-17.9 5.2-27.5C93 17 76 8.2 57.1 7.1c-18.4-1-38.9 4.2-49.6 20.3-11.5 17.3-4.7 39 12 49.9 9.8 6.4 22.9 9.4 34.4 6.7 2.3-.5 5.7-2.9 8-2.7 1.8.1 4.2 2 5.8 2.7 5.3 2.4 10.6 3.4 16.4 2.6.8-.1.5-1.3-.3-1.2-5.9.8-11.1-.4-16.4-2.9-1.8-.9-4-2.5-6.1-2.5-1.1 0-2.7 1.3-3.6 1.6-1.9.8-3.9 1.3-5.9 1.6-5.2.9-10.7.6-15.8-.5C16 78.5-1.7 59.8 3.8 38.5 8.6 20.3 26.5 10.8 44 8.8c15.5-1.8 34.6.5 45.4 13 7.1 8.2 10.1 21.3 7.1 31.7-3.1 10.9-12.3 18-22.2 22.5-.3.1-.4.6-.2.9 2.3 4 5.8 7.2 9.6 9.7.6.3 1.2-.7.5-1.2z"/><g><path class="st17" d="M9.6 39.9H91v27.3H9.6z"/><text transform="translate(20.452 55.97)" class="st19" font-size="22.68" fill="#f5a5c7">oops!</text></g></g></g><g id="DESIGNED_BY_FREEPIK" class="st0"><g class="st2"><path class="st16" d="M76.5 408.4c-.1-.2-.3-.3-.6-.3s-.5.1-.6.3c-.1.2-.2.5-.2.8v2.6c-.3-.4-.7-.6-1-.8-.4-.2-.8-.3-1.3-.3-.9 0-1.6.3-2.1.9-.5.6-.8 1.5-.8 2.6 0 .5.1 1 .2 1.4.1.5.3.8.6 1.2.3.3.6.6.9.8.3.2.7.3 1.2.3.3 0 .6-.1.9-.1.3-.1.5-.2.8-.4.2-.2.5-.4.7-.7v.2c0 .3.1.6.2.8.2.2.4.3.6.3.2 0 .4-.1.6-.3.1-.2.2-.4.2-.8v-7.8c0-.3-.1-.6-.3-.7zm-1.7 7.1c-.2.3-.4.6-.6.7-.3.2-.5.2-.8.2-.3 0-.6-.1-.8-.3-.3-.2-.5-.4-.6-.8-.1-.3-.2-.7-.2-1.2s.1-.8.2-1.2c.1-.3.3-.6.6-.8.3-.2.5-.3.9-.3.3 0 .6.1.9.3.3.2.5.4.6.8.2.3.2.7.2 1.2-.2.7-.3 1.1-.4 1.4zM83.6 415.5c-.2 0-.3 0-.4.1l-.5.5c-.1.1-.3.2-.5.3-.2.1-.3.2-.5.2-.2.1-.4.1-.6.1-.3 0-.6-.1-.9-.2-.3-.2-.5-.4-.6-.7-.2-.3-.2-.7-.2-1.1h3.4c.5 0 .8-.1 1.1-.2.3-.1.4-.4.4-.9s-.1-.9-.4-1.4c-.2-.5-.6-.8-1.1-1.1-.5-.3-1.1-.4-1.8-.4-.5 0-1 .1-1.4.3-.4.2-.8.4-1.1.7-.3.3-.5.7-.7 1.1-.2.4-.2.9-.2 1.4 0 1.1.3 2 .9 2.6.6.6 1.5 1 2.6 1 .5 0 .9-.1 1.3-.2s.7-.3.9-.5c.3-.2.4-.4.6-.6.1-.2.2-.4.2-.6 0-.2-.1-.3-.2-.4h-.3zm-3.7-3.1c.3-.3.6-.4 1.1-.4.5 0 .8.1 1.1.4.3.3.4.8.5 1.3h-3.2c.1-.5.2-1 .5-1.3zM90.6 414.7c-.2-.3-.4-.5-.8-.7-.3-.2-.8-.3-1.3-.5-.5-.1-.8-.2-1.1-.3-.3-.1-.5-.2-.6-.3-.1-.1-.2-.3-.2-.4 0-.2.1-.4.3-.5.2-.1.5-.2.8-.2.3 0 .6.1.7.2.2.1.3.2.5.4s.3.4.4.5c.1.1.3.2.5.2.3 0 .5-.1.6-.2.1-.1.2-.3.2-.5s-.1-.4-.2-.6c-.1-.2-.3-.4-.5-.5-.2-.2-.5-.3-.9-.4-.4-.1-.8-.1-1.2-.1-.6 0-1.1.1-1.5.3-.4.2-.7.4-.9.8-.2.3-.3.7-.3 1 0 .4.1.7.3 1 .2.3.5.5.9.7.4.2.9.3 1.5.5.5.1.9.3 1.2.4.2.1.3.4.3.7 0 .2-.1.4-.3.5-.2.2-.5.2-.9.2s-.8-.1-1-.2c-.3-.2-.5-.4-.7-.7-.1-.2-.2-.3-.3-.4-.1-.1-.2-.1-.4-.1s-.4.1-.5.2c-.1.1-.2.3-.2.5 0 .3.1.6.3.9.2.3.6.5 1 .7.5.2 1 .3 1.6.3.7 0 1.2-.1 1.7-.3.5-.2.8-.4 1-.8.2-.3.4-.8.4-1.2-.2-.5-.2-.8-.4-1.1zM93.3 411c-.2-.2-.4-.3-.6-.3-.3 0-.5.1-.6.3-.2.2-.2.4-.2.8v5c0 .3.1.6.2.8.2.2.4.3.6.3.3 0 .5-.1.6-.3.2-.2.3-.5.3-.8v-5.1c-.1-.3-.2-.5-.3-.7zm-.1-2.6c-.2-.1-.4-.2-.6-.2-.2 0-.4.1-.6.3-.2.2-.3.4-.3.6 0 .3.1.5.3.6.2.1.4.2.6.2.2 0 .4-.1.6-.2.2-.2.3-.4.3-.6 0-.3-.1-.5-.3-.7zM101 411.1c-.1-.2-.3-.3-.7-.3-.2 0-.4.1-.6.3-.2.2-.2.4-.2.7v.2c-.3-.4-.6-.7-1-.9-.4-.2-.8-.3-1.3-.3-.4 0-.8.1-1.1.2-.4.1-.7.4-.9.7-.3.3-.5.7-.6 1.1-.2.4-.2.9-.2 1.4 0 .7.1 1.3.4 1.9.2.5.6 1 1 1.3.4.3 1 .5 1.5.5s.9-.1 1.3-.3c.3-.2.7-.5.9-.9v1.3c0 .3-.1.5-.2.7-.1.2-.3.4-.5.5-.3.1-.6.2-1.1.2-.2 0-.4 0-.6-.1-.2 0-.3-.1-.4-.2l-.3-.3-.3-.3c-.2-.2-.4-.3-.7-.3-.2 0-.4.1-.5.2-.1.1-.2.3-.2.5 0 .3.1.6.4.8.3.3.6.5 1.1.7.5.2 1 .3 1.6.3.7 0 1.2-.1 1.7-.2.4-.1.8-.3 1.1-.6.3-.3.5-.6.6-1 .1-.4.2-.9.2-1.5V412c-.2-.4-.2-.7-.4-.9zm-1.7 4.4c-.2.3-.4.6-.6.7-.3.2-.5.2-.8.2-.5 0-.9-.2-1.2-.5-.3-.4-.5-.9-.5-1.6 0-.7.2-1.3.5-1.6.3-.4.7-.6 1.2-.6s.9.2 1.2.6c.3.4.5 1 .5 1.7-.1.4-.2.8-.3 1.1zM108.6 412.6c0-.2-.1-.5-.2-.7-.2-.4-.5-.7-.8-.9-.4-.2-.8-.3-1.2-.3-.5 0-.9.1-1.3.3-.1 0-.2.1-.3.2-.3.2-.5.4-.7.7v-.2c0-.2 0-.4-.1-.5-.1-.1-.2-.3-.3-.3-.1-.1-.3-.1-.4-.1-.3 0-.5.1-.6.3-.2.2-.2.4-.2.8v5.1c0 .3.1.6.3.8.2.2.4.3.6.3.3 0 .5-.1.6-.3.2-.2.3-.5.3-.8v-2.2c0-.7 0-1.2.1-1.5.1-.3.3-.6.6-.8.3-.2.6-.3.9-.3.5 0 .8.2 1 .5.2.3.2.8.2 1.3v2.9c0 .3.1.6.3.8.2.2.4.3.6.3.3 0 .5-.1.6-.3.2-.2.3-.5.3-.8v-3.3c-.3-.4-.3-.8-.3-1zM115.4 415.5c-.2 0-.3 0-.4.1l-.5.5c-.1.1-.3.2-.5.3-.2.1-.3.2-.5.2-.2.1-.3.1-.5.1-.3 0-.6-.1-.9-.2-.3-.2-.5-.4-.6-.7 0-.1-.1-.1-.1-.2-.1-.3-.2-.6-.2-.9h3.4c.5 0 .8-.1 1.1-.2.3-.1.4-.4.4-.9s-.1-.9-.4-1.4c-.2-.5-.6-.8-1.1-1.1-.5-.3-1.1-.4-1.8-.4-.5 0-1 .1-1.4.3-.4.2-.8.4-1.1.7-.3.3-.5.7-.7 1.1-.2.4-.2.9-.2 1.4 0 1.1.3 2 .9 2.6.6.6 1.5 1 2.6 1 .5 0 .9-.1 1.3-.2s.7-.3.9-.5c.3-.2.4-.4.6-.6.1-.2.2-.4.2-.6 0-.2-.1-.3-.2-.4h-.3zm-3.6-3.1c.3-.3.6-.4 1.1-.4.5 0 .8.1 1.1.4.3.3.5.8.5 1.3h-3.2c0-.5.2-1 .5-1.3zM123.3 408.4c-.1-.2-.3-.3-.6-.3s-.5.1-.6.3c-.1.2-.2.5-.2.8v2.6c-.3-.4-.7-.6-1-.8-.4-.2-.8-.3-1.3-.3-.9 0-1.6.3-2.1.9-.5.6-.8 1.5-.8 2.6 0 .5.1 1 .2 1.4.1.5.3.8.6 1.2.3.3.6.6.9.8.4.2.8.3 1.2.3.3 0 .6-.1.9-.1.3-.1.5-.2.8-.4.2-.2.5-.4.7-.7v.2c0 .3.1.6.2.8.2.2.3.3.6.3.2 0 .4-.1.6-.3.2-.2.2-.4.2-.8v-7.8c-.1-.3-.2-.6-.3-.7zm-1.8 7.1c-.2.3-.4.6-.6.7-.3.2-.5.2-.8.2-.3 0-.6-.1-.8-.3-.3-.2-.5-.4-.6-.8-.2-.3-.2-.7-.2-1.2s.1-.8.2-1.2c.1-.3.3-.6.6-.8.3-.2.5-.3.9-.3.3 0 .6.1.9.3.3.2.5.4.6.8.2.3.2.7.2 1.2-.1.7-.2 1.1-.4 1.4zM133.9 412.4c-.2-.5-.6-.9-1-1.2-.4-.3-1-.4-1.5-.4s-.9.1-1.3.3c-.3.2-.7.4-1 .8v-2.7c0-.3-.1-.6-.2-.7-.2-.2-.4-.3-.6-.3-.3 0-.5.1-.6.3-.1.2-.2.4-.2.8v7.7c0 .3.1.6.2.8.1.2.3.3.6.3s.4-.1.6-.3c.2-.2.2-.4.2-.8v-.2c.2.2.3.4.5.5.1.1.3.2.4.3l.6.3c.2.1.5.1.8.1.4 0 .9-.1 1.2-.3.4-.2.7-.4.9-.8.3-.3.5-.7.6-1.1.1-.5.2-.9.2-1.5-.1-.8-.2-1.4-.4-1.9zm-1.9 3.5c-.3.4-.7.6-1.1.6-.5 0-.9-.2-1.3-.6-.3-.4-.5-.9-.5-1.6 0-.5.1-.9.2-1.2.1-.4.3-.6.6-.8.3-.2.6-.3.9-.3.3 0 .6.1.8.3.3.2.4.4.6.8.1.3.2.7.2 1.2.1.7-.1 1.3-.4 1.6zM140.7 411.1l-.3-.3c-.1-.1-.3-.1-.4-.1-.2 0-.3 0-.4.1-.1.1-.2.2-.3.4-.1.2-.2.4-.3.8l-1.4 4-1.5-4.3c-.1-.3-.2-.5-.3-.7-.1-.2-.3-.2-.6-.2-.2 0-.3 0-.4.1-.1.1-.3.2-.3.3-.1.1-.1.3-.1.4 0 .2.1.4.2.7l2.2 5.4-.2.4c-.1.3-.2.5-.3.7-.1.2-.2.3-.3.3-.1.1-.3.1-.5.1h-.6c-.2 0-.4.1-.5.2-.1.1-.2.3-.2.5 0 .3.1.5.4.6.3.1.6.2 1.2.2.5 0 .9-.1 1.3-.2.3-.2.6-.4.8-.7.2-.3.4-.7.6-1.2l2.3-6c.1-.2.1-.3.1-.5 0-.1.1-.3.1-.3-.2-.4-.3-.6-.3-.7z"/><g><path class="st16" d="M162 410.9h.4v-.5c0-.6.1-1 .2-1.3.1-.3.4-.6.7-.7.3-.1.8-.2 1.4-.2 1 0 1.5.3 1.5.8 0 .2-.1.3-.2.4-.1.1-.2.2-.4.2h-.8c-.3 0-.5.1-.6.3-.1.2-.1.5-.1.8v.4h.4c.7 0 1 .2 1 .6 0 .3-.1.5-.3.5-.2.1-.4.1-.7.1h-.4v4.7c0 .3-.1.6-.3.8-.2.2-.4.3-.6.3-.2 0-.5-.1-.6-.3-.2-.2-.2-.4-.2-.8v-4.7h-.5c-.3 0-.5-.1-.6-.2-.1-.1-.2-.3-.2-.5 0-.5.3-.7.9-.7zM167.7 415.3v1.5c0 .4-.1.6-.3.8-.2.2-.4.3-.6.3-.3 0-.5-.1-.6-.3-.2-.2-.2-.4-.2-.8v-4.9c0-.8.3-1.2.9-1.2.3 0 .5.1.6.3.1.2.2.5.2.8.2-.4.4-.6.6-.8.2-.2.5-.3.9-.3s.7.1 1.1.3c.3.2.5.4.5.7 0 .2-.1.4-.2.5-.1.1-.3.2-.5.2-.1 0-.2 0-.5-.1-.2-.1-.5-.1-.7-.1-.3 0-.5.1-.6.2-.2.1-.3.3-.4.6-.1.3-.1.6-.2 1 .1.4 0 .8 0 1.3zM176.6 415.5c-.2 0-.3 0-.4.1l-.5.5c-.1.1-.3.2-.4.3-.2.1-.3.2-.5.2-.2.1-.4.1-.6.1-.3 0-.6-.1-.9-.2-.3-.2-.5-.4-.6-.7-.2-.3-.2-.7-.2-1.1h3.4c.5 0 .8-.1 1.1-.2.3-.1.4-.4.4-.9s-.1-.9-.4-1.4c-.2-.5-.6-.8-1.1-1.1-.5-.3-1.1-.4-1.8-.4-.5 0-1 .1-1.4.3-.4.2-.8.4-1.1.7-.3.3-.5.7-.7 1.1-.2.5-.2.9-.2 1.5 0 1.1.3 2 .9 2.6.6.6 1.5 1 2.6 1 .5 0 .9-.1 1.3-.2s.7-.3 1-.5c.3-.2.4-.4.6-.6.1-.2.2-.4.2-.5 0-.2-.1-.3-.2-.4-.2-.2-.4-.2-.5-.2zm-3.7-3.1c.3-.3.6-.4 1.1-.4.5 0 .8.1 1.1.4.3.3.4.7.5 1.3h-3.2c0-.6.2-1 .5-1.3zM183.9 415.5c-.2 0-.3 0-.4.1l-.5.5c-.1.1-.3.2-.5.3-.2.1-.3.2-.5.2-.2.1-.4.1-.6.1-.3 0-.6-.1-.9-.2-.3-.2-.5-.4-.6-.7-.2-.3-.2-.7-.3-1.1h3.4c.5 0 .8-.1 1.1-.2.3-.1.4-.4.4-.9s-.1-.9-.4-1.4c-.2-.5-.6-.8-1.1-1.1-.5-.3-1.1-.4-1.8-.4-.5 0-1 .1-1.4.3-.4.2-.8.4-1.1.7-.3.3-.5.7-.7 1.1-.2.5-.2.9-.2 1.5 0 1.1.3 2 1 2.6.6.6 1.5 1 2.6 1 .5 0 .9-.1 1.3-.2s.7-.3.9-.5c.3-.2.4-.4.6-.6.1-.2.2-.4.2-.5 0-.2 0-.3-.2-.4 0-.2-.2-.2-.3-.2zm-3.7-3.1c.3-.3.6-.4 1.1-.4.5 0 .8.1 1.1.4.3.3.4.7.5 1.3h-3.2c0-.6.2-1 .5-1.3zM192.2 414.1c0-.7-.1-1.2-.4-1.7-.3-.5-.6-.9-1.1-1.2-.5-.3-1-.4-1.5-.4s-.8.1-1.2.3c-.4.2-.7.5-1 .9v-.2c0-.3-.1-.6-.2-.7s-.4-.3-.6-.3-.4.1-.6.2c-.2.2-.2.4-.2.8v7.6c0 .4.1.7.2.9.1.2.3.3.7.3.6 0 .8-.4.8-1.2v-2.6l.6.6c.1.1.3.2.4.3.3.2.8.3 1.3.3.4 0 .8-.1 1.2-.2.4-.2.7-.4 1-.7.3-.3.5-.7.6-1.1.2-.5.2-1 .2-1.5-.2-.3-.2-.3-.2-.4zm-2 1.4c-.2.3-.3.6-.6.8-.2.2-.5.3-.8.3h-.2c-.4 0-.8-.2-1.1-.6-.3-.4-.5-.9-.5-1.6 0-.7.2-1.3.5-1.7.3-.4.7-.6 1.2-.6.3 0 .6.1.8.3.3.2.4.4.6.8.2.3.2.7.2 1.2 0 .4-.1.8-.2 1.1.1-.1.1 0 .1 0zM194.6 411c-.2-.2-.4-.3-.6-.3-.3 0-.5.1-.6.3-.2.2-.3.4-.3.8v5c0 .3.1.6.3.8.2.2.4.3.6.3.3 0 .5-.1.6-.3.2-.2.3-.4.3-.8v-5.1c-.1-.3-.2-.5-.3-.7zm0-2.6c-.2-.2-.4-.2-.6-.2-.2 0-.4.1-.6.2-.2.2-.3.4-.3.6 0 .3.1.5.3.6.2.2.4.2.6.2.2 0 .4-.1.6-.2.2-.1.3-.4.3-.6l-.3-.6zM200.5 417.1l-1.5-2.6-1 .9v1.4c0 .3-.1.6-.3.8-.2.2-.4.3-.6.3-.3 0-.5-.1-.6-.3-.2-.2-.2-.4-.2-.8v-7.5c0-.4.1-.7.2-.9.2-.2.4-.3.6-.3.3 0 .5.1.6.3.2.2.2.5.2.8v4.3l2-2.1c.2-.3.4-.4.6-.5.1-.1.3-.1.5-.1s.4.1.6.2c.1.1.2.3.2.5 0 .3-.2.6-.7 1l-.9.9 1.8 2.8c.1.2.2.4.3.5.1.1.1.2.1.3 0 .3-.1.5-.2.7-.2.2-.4.2-.6.2-.2 0-.4-.1-.5-.2-.2-.1-.4-.3-.6-.6zM204.3 417.9c-.3 0-.5-.1-.7-.3-.2-.2-.3-.4-.3-.7 0-.3.1-.5.3-.7.2-.2.4-.3.7-.3.3 0 .5.1.7.3.2.2.3.4.3.7 0 .3-.1.5-.3.7-.2.2-.4.3-.7.3zM213.1 415.7c0 .2-.1.5-.2.7-.1.3-.3.5-.6.7-.3.2-.6.4-1 .5-.4.1-.9.2-1.4.2-1.1 0-1.9-.3-2.5-.9-.6-.6-.9-1.5-.9-2.5 0-.7.1-1.4.4-1.9.3-.6.7-1 1.2-1.3.5-.3 1.2-.5 1.9-.5.5 0 .9.1 1.3.2s.7.3 1 .5c.3.2.5.4.6.7.1.2.2.5.2.7 0 .2-.1.4-.2.5-.2.1-.3.2-.6.2-.1 0-.3 0-.4-.1-.1-.1-.2-.2-.3-.4-.2-.3-.4-.6-.7-.7-.2-.2-.5-.2-.9-.2-.5 0-.9.2-1.3.6-.3.4-.5 1-.5 1.7 0 .3 0 .6.1.9.1.3.2.5.4.7.2.2.3.3.6.4.2.1.5.2.7.2.4 0 .7-.1.9-.2.3-.2.5-.4.7-.7.1-.2.2-.3.3-.5.1-.1.3-.2.5-.2s.4.1.5.2c.1.1.2.3.2.5zM220.4 412.9c-.2-.4-.4-.8-.7-1.1-.3-.3-.7-.6-1.1-.7-.4-.2-.9-.3-1.5-.3-.5 0-1 .1-1.4.3-.4.2-.8.4-1.1.7-.3.3-.5.7-.7 1.1-.2.4-.2.9-.2 1.5s.1 1 .2 1.4c.2.4.4.8.7 1.1.3.3.7.6 1.1.7.4.2.9.3 1.4.3.5 0 1-.1 1.5-.3.4-.2.8-.4 1.1-.7.3-.3.5-.7.7-1.1.2-.4.2-.9.2-1.4 0-.6 0-1.1-.2-1.5zm-2 3.1c-.3.4-.7.6-1.3.6-.4 0-.7-.1-.9-.3-.3-.2-.5-.5-.6-.8-.1-.3-.2-.7-.2-1.2s.1-.9.2-1.2c.1-.3.3-.6.6-.8.3-.2.6-.3.9-.3.5 0 1 .2 1.3.6.3.4.5 1 .5 1.7s-.2 1.3-.5 1.7zM227.3 414.4v2.3c0 .4-.1.6-.3.8-.2.2-.4.3-.7.3-.3 0-.5-.1-.6-.3-.2-.2-.3-.5-.3-.8V414v-1c0-.2-.1-.4-.2-.6-.1-.2-.3-.2-.6-.2-.6 0-1 .2-1.1.6-.2.4-.3 1-.3 1.7v2.4c0 .4-.1.6-.2.8-.2.2-.4.3-.7.3-.3 0-.5-.1-.7-.3-.2-.2-.3-.5-.3-.8v-5c0-.3.1-.6.2-.8.2-.2.4-.3.6-.3.2 0 .4.1.6.2.2.2.2.4.2.7v.2c.3-.4.6-.6 1-.8.4-.2.7-.3 1.2-.3.4 0 .8.1 1.1.3.3.2.6.4.8.8.3-.4.6-.6 1-.8.3-.2.7-.3 1.1-.3.5 0 .9.1 1.2.3.3.2.6.5.8.8.1.3.2.8.2 1.5v3.4c0 .4-.1.6-.2.8-.2.2-.4.3-.7.3-.3 0-.5-.1-.7-.3-.2-.2-.3-.5-.3-.8v-3-.9c0-.2-.1-.4-.3-.6-.1-.2-.4-.2-.6-.2-.2 0-.5.1-.7.2-.2.1-.4.3-.5.6.1.3 0 .8 0 1.5z"/></g><g><path class="st16" d="M145.5 413.9zM145.6 414.4c0-.2-.1-.3-.1-.5.1.2.1.4.1.5zM146.2 416.1zM146.2 416c-.1-.1-.1-.1 0 0-.1-.1-.1-.1 0 0z"/><path class="st16" d="M145.8 415.1c.1.3.2.5.3.8-.1-.3-.2-.6-.3-.8zM152.3 407.1c.3 0 .6 0 .9.1l.1-.5s-.8-.2-1.8-.2l-.1-.3c.3-.1.6-.4.6-.7 0-.4-.3-.7-.7-.7-.4 0-.7.3-.7.7 0 .3.2.6.6.7l.1.3c-1.1.2-2 .6-2 .6l.2.5c.7-.2 1.3-.4 1.8-.4.3 0 .7-.1 1-.1zM146.2 409.8l.1-.1-.2-.2-.3-.2s-.5.5-1 1.4c0 0 0-.1-.1-.1-.1-.1-.3-.2-.5-.2-.1 0-.2 0-.3-.1.1-.1.1-.2.1-.3 0-.3-.2-.5-.5-.5s-.5.2-.5.5.2.5.5.5h.1c.1.1.3.2.5.2.1 0 .2 0 .3.1.1.1.1.2.1.3-.3.8-.2 1.8-.2 1.8h.7c0-.4.1-1 .3-1.5.4-1 .9-1.6.9-1.6zM158.6 407.7c-.2 0-.5.2-.5.5v.1c-.1.1-.2.3-.2.5 0 .1 0 .2-.1.3-.1.1-.1.1-.2.1-.5-.7-1.2-1.2-1.2-1.2l-.5.6c.4.4.8.8 1.2 1.3.3.4.5.9.8 1.4l.7-.3s-.3-.8-.8-1.5c.1 0 .2-.1.2-.1.1-.1.2-.3.2-.5 0-.1 0-.2.1-.3.1.1.2.1.3.1.3 0 .5-.2.5-.5s-.3-.5-.5-.5zM156.8 414c-1 .5-2.5 1.1-4.6 1.4-.8.1-1.6.2-2.3.2-.9 0-1.8-.1-2.4-.2-.7-.1-1.3-.2-1.6-.3.1.3.2.5.3.8v.2c.2.4.5.7.7 1.1 1 1.1 2 1.2 2 1.2s.9.3 2.2.3c1.3 0 2.6-.3 3.8-.8.9-.5 1.8-1.2 2.2-1.8.3-.5.6-1 .7-1.6.1-.3.1-.8.1-1.2-.1.1-.5.4-1.1.7z"/><path class="st16" d="M156.8 410.2c-1.3-1.9-2.8-2.4-3.6-2.6-.3 0-.5-.1-.8-.1-.3 0-.7 0-1.2.1s-1.1.2-1.7.4c-.9.3-1.7.8-2.4 1.4-.1.1-.3.3-.5.6 0 0-.5.6-.8 1.5-.3.7-.2 1.7-.2 1.7V414c0 .2.1.3.1.5.5.1 3.3.8 6.5.3 2-.3 3.5-.9 4.4-1.3.8-.4 1.3-.7 1.4-.8-.2-.8-.8-1.9-1.2-2.5zm-7.6 3.1c-1.1 0-1.9-.8-1.9-1.9 0-1.1.8-1.9 1.9-1.9 1.1 0 1.9.8 1.9 1.9 0 1.1-.8 1.9-1.9 1.9zm5.6-1.4c-.7 0-1.2-.5-1.2-1.2s.5-1.2 1.2-1.2c.6 0 1.2.5 1.2 1.2s-.5 1.2-1.2 1.2z"/></g></g></g></svg>